# xmcd
#
# Track frame offsets:
#	150
#	21477
#	44435
#	73726
#	101761
#	121254
#	148110
#	161802
#	190490
#	206718
#
# Disc length: 3069 seconds
#
# Revision: 2
# Processed by: cddbd v1.4PL0 Copyright (c) Steve Scherf et al.
# Submitted via: CDmax 1.8
#
DISCID=9e0bfb0a
DTITLE=Bruce Springsteen - Is a Dream a Lie? Country and Folk Collection: 1980
DTITLE=Various Artist - 2000 [CD2]
DYEAR=2003
DGENRE=Country
TTITLE0=The River
TTITLE1=Across the Borderline
TTITLE2=Highway Patrolman
TTITLE3=My Father's House
TTITLE4=Shut Out the Light
TTITLE5=No Surrender
TTITLE6=I'm On Fire
TTITLE7=Darlington County
TTITLE8=Born in the U.S.A.
TTITLE9=This Hard Land
EXTD=
EXTT0=
EXTT1=
EXTT2=
EXTT3=
EXTT4=
EXTT5=
EXTT6=
EXTT7=
EXTT8=
EXTT9=
PLAYORDER=
